# xmcd
#
# Track frame offsets: 
#        150
#        22632
#        38980
#        72117
#        86265
#        114838
#        129180
#        147845
#        158425
#        170893
#        195065
#        210353
#        226293
#        241661
#        266448
#        283306
#
# Disc length: 3984 seconds
#
# Revision: 0
# Processed by: cddbd v1.5.1PL2 Copyright (c) Steve Scherf et al.
# Submitted via: ExactAudioCopy v0.95b4
#
DISCID=be0f8e10
DTITLE=Various Artist - Big sunny Blues II
DYEAR=2003
DGENRE=Blues
TTITLE0=B.B.King - The thrill is gone
TTITLE1=Dr.Jones - I like Ki Yoka
TTITLE2=Albert King - I`ll play the blues for you
TTITLE3=King Biscuit Boy with the Ronnie Hawkins Band - Neighbour Neig
TTITLE3=hbour
TTITLE4=Biily Boy Arnold with Tony McPhee - Blue and lonesome
TTITLE5=Buddy Guy - Sit and Cry
TTITLE6=Byther Smith - Come on this house
TTITLE7=The Paul Delay Band - Harpoon Man
TTITLE8=Buddy Guy - You sure can`t do
TTITLE9=Jimmy Johnson - When my first whife quit me
TTITLE10=Isaac Scott - Help
TTITLE11=Clarence Edwards - Rocky Mountains
TTITLE12=Buddy Guy and Junior Wells - Hoodoo man blues
TTITLE13=Byther Smith - Hold that train
TTITLE14=Billy Boy Arnold - Back door friend
TTITLE15=Louisianna Red - Lightnin bug
EXTD=
EXTT0=
EXTT1=
EXTT2=
EXTT3=
EXTT4=
EXTT5=
EXTT6=
EXTT7=
EXTT8=
EXTT9=
EXTT10=
EXTT11=
EXTT12=
EXTT13=
EXTT14=
EXTT15=
PLAYORDER=
